<?xml version="1.0" encoding="utf-8"?>
<!-- Generator: Adobe Illustrator 23.0.2, SVG Export Plug-In . SVG Version: 6.00 Build 0)  -->
<svg version="1.1" id="Layer_1" xmlns="http://www.w3.org/2000/svg" xmlns:xlink="http://www.w3.org/1999/xlink" x="0px" y="0px"
	 viewBox="0 0 749.7 880.7" style="enable-background:new 0 0 749.7 880.7;" xml:space="preserve">
<style type="text/css">
	.st0{fill:#3CC68A;}
	.st1{fill:#595959;}
	.st2{fill:#424242;}
	.st3{fill:#63DAA4;}
	.st4{fill:#FFFFFF;}
	.st5{fill:#EAEAEA;}
	.st6{fill:#D8D8D8;}
	.st7{fill:#63DBA4;}
	.st8{fill:#79F2B8;}
	.st9{fill:#F4F4F4;}
</style>
<g>
	<g>
		<path class="st4" d="M94.9,779v99.7H71.7l-44-53.1v53.1H0V779h23.2l44,53.1V779H94.9z"/>
		<path class="st4" d="M220.6,856.9v21.8h-80.1V779h78.2v21.8h-50.3v16.8h44.3v21.1h-44.3v18.2H220.6z"/>
		<path class="st4" d="M305.5,852.2h-15.4v26.5h-28.2V779h45.6c9,0,16.9,1.5,23.5,4.5c6.6,3,11.8,7.3,15.4,12.8
			c3.6,5.6,5.4,12.1,5.4,19.6c0,7.2-1.7,13.5-5.1,18.9c-3.4,5.4-8.2,9.6-14.5,12.6l21.5,31.3h-30.2L305.5,852.2z M318.9,805.1
			c-2.9-2.6-7.3-3.8-13.1-3.8h-15.7v29.2h15.7c5.8,0,10.2-1.3,13.1-3.8c2.9-2.5,4.4-6.1,4.4-10.8
			C323.3,811.3,321.8,807.6,318.9,805.1z"/>
		<path class="st4" d="M494.1,779l-42.7,99.7h-27.8L381,779h30.5l27.1,65l27.6-65H494.1z"/>
		<path class="st0" d="M546.2,874c-8.4-4.5-15-10.6-19.8-18.5c-4.8-7.9-7.2-16.8-7.2-26.6c0-9.9,2.4-18.8,7.2-26.6
			c4.8-7.9,11.4-14.1,19.8-18.5c8.4-4.5,17.9-6.7,28.4-6.7c10.5,0,20,2.2,28.4,6.7c8.4,4.5,15,10.6,19.8,18.5
			c4.8,7.9,7.2,16.8,7.2,26.6c0,9.9-2.4,18.8-7.2,26.6c-4.8,7.9-11.4,14.1-19.8,18.5c-8.4,4.5-17.9,6.7-28.4,6.7
			C564.1,880.7,554.6,878.5,546.2,874z M588.3,853.8c4.1-2.4,7.3-5.7,9.7-10c2.4-4.3,3.6-9.3,3.6-14.9c0-5.6-1.2-10.6-3.6-14.9
			c-2.4-4.3-5.6-7.7-9.7-10c-4.1-2.4-8.6-3.6-13.7-3.6s-9.6,1.2-13.7,3.6c-4.1,2.4-7.3,5.7-9.7,10c-2.4,4.3-3.6,9.3-3.6,14.9
			c0,5.6,1.2,10.6,3.6,14.9c2.4,4.3,5.6,7.7,9.7,10c4.1,2.4,8.6,3.6,13.7,3.6S584.2,856.2,588.3,853.8z"/>
		<path class="st4" d="M682.1,877.7c-7.6-2-13.8-4.7-18.5-8l9.3-20.8c4.5,2.9,9.6,5.3,15.5,7.1c5.9,1.8,11.7,2.7,17.4,2.7
			c10.8,0,16.2-2.7,16.2-8.1c0-2.9-1.5-5-4.6-6.3c-3.1-1.4-8.1-2.8-14.9-4.3c-7.5-1.6-13.8-3.3-18.8-5.2c-5-1.9-9.4-4.8-13-8.9
			c-3.6-4.1-5.4-9.6-5.4-16.5c0-6.1,1.7-11.6,5-16.5c3.3-4.9,8.3-8.8,14.9-11.6c6.6-2.9,14.7-4.3,24.3-4.3c6.6,0,13,0.7,19.4,2.2
			c6.4,1.5,12,3.6,16.8,6.5l-8.7,20.9c-9.5-5.1-18.7-7.7-27.6-7.7c-5.6,0-9.7,0.8-12.3,2.5c-2.6,1.7-3.8,3.8-3.8,6.5
			c0,2.7,1.5,4.7,4.6,6c3,1.3,7.9,2.7,14.7,4.1c7.6,1.6,13.9,3.3,18.9,5.2c5,1.9,9.3,4.8,13,8.8c3.7,4,5.5,9.5,5.5,16.5
			c0,6-1.7,11.4-5,16.2c-3.3,4.8-8.3,8.7-15,11.6c-6.7,2.9-14.7,4.3-24.2,4.3C697.5,880.7,689.7,879.7,682.1,877.7z"/>
	</g>
	<g>
		<polygon class="st4" points="0.2,0 0.2,125.8 0.2,251.6 0.2,377.4 126,377.4 126,251.6 126,125.8 126,0 		"/>
		<polygon class="st4" points="623.8,251.6 623.8,377.4 623.8,503.3 623.8,629.1 749.6,629.1 749.6,503.3 749.6,377.4 749.6,251.6 
					"/>
		<polygon class="st4" points="372.1,0 372.1,125.8 372.1,246.2 498,372 498,251.6 498,125.8 		"/>
		<polygon class="st4" points="251.8,257.1 251.8,377.4 251.8,503.3 377.6,629.1 377.6,503.3 377.6,382.9 		"/>
		<polygon class="st6" points="372.1,0 498,0 749.6,251.6 623.8,251.6 		"/>
		<polygon class="st6" points="0.2,377.4 126,377.4 377.6,629.1 251.8,629.1 		"/>
		<polygon class="st0" points="498,125.8 498,251.6 498,370.3 126,0 126,125.8 126,133.6 126,251.6 126,377.4 251.8,503.3 
			251.8,377.4 251.8,258.8 623.8,629.1 623.8,503.3 623.8,495.5 623.8,377.4 623.8,251.6 		"/>
	</g>
</g>
</svg>
